<svg xmlns="http://www.w3.org/2000/svg" fill="none" viewBox="0 0 333 102">
  <g fill="#124A85">
    <path fill="#124A85" d="M173.41.502v.28c.771.368 1.474 1.274 1.474 2.426v24.659c-.022 6.118-6.267 10.636-12.132 10.636-5.865 0-9.183-6.006-9.183-12.145V3.208c0-1.085.67-1.946 1.396-2.348V.502h-7.507v.257c.793.347 1.53 1.264 1.53 2.449v23.15c0 7.805 6.189 15.22 13.73 15.22 4.692 0 9.329-1.644 12.166-4.775v3.634c0 .593.481 1.085 1.084 1.085h3.821v-.771a2.25 2.25 0 0 1-2.145-2.248v-9.696c.011-.258.022-.515.022-.772V3.208c0-1.107.704-1.99 1.441-2.382V.502h-5.697Z"></path>
    <path fill="#124A85" d="M162.707 41.679c-7.362 0-13.831-7.158-13.831-15.322V3.209c0-1.185-.759-2.047-1.474-2.36l-.056-.022V.401h7.708v.514l-.056.034c-.625.347-1.351 1.14-1.351 2.259v23.15c0 3.097.86 6.128 2.368 8.32 1.676 2.438 4 3.724 6.714 3.724 7.072 0 12.01-5.558 12.032-10.535V3.208c0-1.152-.703-2.002-1.407-2.337l-.056-.023V.401h5.888v.492l-.056.022c-.693.37-1.386 1.22-1.386 2.293v24.838c0 .246 0 .503-.022.772v9.685c0 1.151.905 2.09 2.056 2.147h.089v.962h-3.921a1.186 1.186 0 0 1-1.185-1.186V37.05c-2.748 2.896-7.239 4.618-12.065 4.618l.011.012ZM147.547.692c.771.358 1.53 1.264 1.53 2.516v23.15c0 8.052 6.368 15.12 13.63 15.12 4.882 0 9.396-1.768 12.088-4.742l.168-.19v3.891c0 .537.435.985.983.985h3.72v-.57a2.358 2.358 0 0 1-2.145-2.35v-9.695c.022-.28.022-.526.022-.772V3.208c0-1.208.76-2.058 1.441-2.438V.602h-5.485v.123a2.813 2.813 0 0 1 1.475 2.483v24.66c-.011 2.885-1.408 5.613-3.91 7.693-2.347 1.935-5.385 3.042-8.323 3.042-2.782 0-5.162-1.32-6.882-3.813-1.531-2.226-2.402-5.301-2.402-8.432V3.208c0-1.174.737-2.024 1.396-2.404V.602h-7.306v.09ZM69.333 38.29 55.077.502l-13.26 37.956c-.537 1.398-1.174 2.203-2.023 2.628l.023.492h4.636v-.257c-.816-.29-1.218-1.007-.905-1.823l4.111-11.832h13.049l4.111 11.675c.313.772.1 1.577-.659 1.946v.302h7.697v-.29c-.793-.291-1.731-1.063-2.524-2.998v-.01ZM48.687 25.06l5.407-16.64 5.508 16.64H48.687Z"></path>
    <path fill="#124A85" d="M71.947 41.679h-7.899v-.459l.056-.022c.67-.313.916-1.051.603-1.812l-4.088-11.62H47.704l-4.089 11.766c-.134.357-.134.693 0 .984.145.324.436.57.85.715l.066.023v.425h-4.837l-.023-.649.056-.034c.838-.425 1.453-1.218 1.978-2.572L55.066.211l.1.257 14.256 37.789c.648 1.588 1.475 2.572 2.469 2.94l.067.023v.459h-.011Zm-7.698-.202h7.508v-.123c-1.017-.402-1.855-1.42-2.514-3.02L55.077.793 41.906 38.48c-.536 1.387-1.162 2.203-2.022 2.662v.335h4.457v-.09c-.424-.167-.737-.446-.894-.793-.156-.347-.156-.738 0-1.14l4.134-11.9h13.194l.022.067 4.112 11.676c.335.85.078 1.655-.648 2.035v.134l-.011.011ZM59.747 25.15H48.553l.045-.134 5.496-16.932.09.29 5.552 16.776h.011Zm-10.926-.19h10.647L54.094 8.733 48.821 24.96ZM187.576 20.978c0 12.47 9.149 20.6 20.377 20.6 4.581 0 8.837-1.644 11.652-3.456V33.74c-2.603 4.216-7.328 6.374-10.97 6.374-8.268 0-16.222-8.421-16.222-19.135 0-10.713 8.211-19.134 16.222-19.134 3.642 0 7.742 1.755 10.97 6.262V3.834C216.69 1.967 212.534.38 207.953.38c-11.228 0-20.377 8.13-20.377 20.6Z"></path>
    <path fill="#124A85" d="M207.964 41.679c-11.864 0-20.478-8.7-20.478-20.7S196.089.277 207.964.277c4.011 0 8.279 1.264 11.697 3.467l.045.033v4.63l-.179-.246c-3.876-5.412-8.49-6.218-10.892-6.218-3.899 0-7.921 2.025-11.038 5.536-3.274 3.702-5.083 8.5-5.083 13.498 0 5 1.776 9.853 4.982 13.521 3.073 3.512 7.139 5.513 11.139 5.513 3.362 0 8.2-1.98 10.892-6.33l.179-.301v4.786l-.045.034c-3.362 2.17-7.731 3.466-11.697 3.466v.012Zm0-41.2c-11.752 0-20.288 8.623-20.288 20.5 0 11.876 8.536 20.498 20.288 20.498 3.911 0 8.223-1.274 11.552-3.41v-3.993c-2.759 4.216-7.53 6.14-10.87 6.14-4.056 0-8.167-2.036-11.284-5.58-3.251-3.703-5.038-8.545-5.038-13.645s1.821-9.886 5.139-13.632c3.15-3.567 7.228-5.603 11.183-5.603 2.402 0 6.982.794 10.87 6.062V3.9c-3.385-2.17-7.597-3.41-11.552-3.41V.478ZM257.903 38.29l-15.284-20.957 11.34-13.722c1.519-1.521 3.195-2.539 4.659-2.886V.49h-5.922l-.022.258c.492.268.648.85.078 1.454L235.056 22.23l.078-19.034c0-1.152.749-2.047 1.52-2.416v-.29h-7.53v.29c.759.38 1.441 1.275 1.441 2.416V38.86c0 1.107-.693 1.979-1.441 2.37v.336h7.384v-.336c-.726-.391-1.374-1.275-1.374-2.37V24.88l4.212-4.272 13.931 19.135c.447.526.414 1.275-.167 1.577v.246h8.613v-.235c-.983-.29-2.256-1.118-3.82-3.042Z"></path>
    <path fill="#124A85" d="M261.824 41.679h-8.815v-.403l.056-.022a.756.756 0 0 0 .402-.537c.056-.29-.044-.626-.268-.884l-13.875-19.045-4.1 4.16v13.935c0 1.163.715 1.957 1.318 2.292l.056.023v.492h-7.586v-.492l.056-.023c.637-.335 1.385-1.14 1.385-2.281V3.208c0-1.13-.692-1.98-1.385-2.326l-.056-.022V.4h7.731v.447l-.056.023c-.726.346-1.463 1.208-1.463 2.326l-.078 18.777 17.528-19.828c.257-.28.369-.56.335-.806a.69.69 0 0 0-.379-.492l-.056-.033.044-.414h6.111v.414l-.078.022c-1.452.336-3.139 1.376-4.614 2.852l-11.283 13.655 15.238 20.89c1.352 1.655 2.625 2.673 3.776 3.008l.067.023v.414h-.011Zm-8.614-.202h8.424v-.067c-1.173-.369-2.447-1.398-3.798-3.053l-15.328-21.024.045-.056 11.339-13.722c1.486-1.488 3.162-2.539 4.636-2.897V.591h-5.731v.112c.224.145.38.358.413.604.034.224 0 .57-.379.973L234.967 22.5v-.27l.078-19.033c0-1.186.76-2.091 1.519-2.483V.591h-7.34v.134c.727.38 1.442 1.286 1.442 2.472V38.86c0 1.196-.76 2.046-1.442 2.438v.178h7.184V41.3a2.813 2.813 0 0 1-1.374-2.438V24.837l4.323-4.384.067.09 13.932 19.134c.257.302.368.693.301 1.051a.993.993 0 0 1-.447.649V41.477ZM288.346 39.532h-10.032a2.31 2.31 0 0 1-2.291-2.293V21.135h7.385c1.441 0 2.994.861 3.642 2.393h.413v-6.497h-.268c-.525 1.71-2.223 2.796-3.787 2.796h-7.385V2.537h10.189c2.156 0 4.525 1.499 5.452 3.791h.525V.502H269.99v.29c.76.37 1.453 1.275 1.453 2.416v35.664c0 1.118-.704 2.002-1.453 2.382v.324h24.333v-6.017h-.447c-.883 2.394-3.318 3.97-5.53 3.97Z"></path>
    <path fill="#124A85" d="M294.423 41.679H269.89v-.481l.056-.023c.692-.357 1.396-1.218 1.396-2.292V3.208c0-1.14-.704-1.99-1.396-2.326L269.89.86V.4h22.399v6.028h-.692l-.023-.067c-.882-2.159-3.139-3.724-5.362-3.724h-10.088v17.099h7.284c1.62 0 3.206-1.174 3.687-2.729l.022-.067h.447v6.699h-.581l-.023-.056c-.681-1.61-2.267-2.337-3.552-2.337h-7.284V37.25c0 1.185 1.005 2.192 2.189 2.192h10.033c2.279 0 4.625-1.678 5.441-3.914l.022-.067h.614v6.218Zm-24.332-.202h24.131v-5.815h-.279c-.871 2.27-3.262 3.97-5.597 3.97h-10.033c-1.295 0-2.39-1.096-2.39-2.393V21.034h7.485c1.329 0 2.972.738 3.709 2.393h.246v-6.296h-.101c-.525 1.6-2.167 2.796-3.854 2.796h-7.485V2.437h10.289c2.279 0 4.592 1.587 5.519 3.79h.357V.603h-21.997v.123c.737.38 1.452 1.286 1.452 2.483v35.664c0 1.14-.726 2.035-1.452 2.449v.168-.012ZM26.98.792c.76.37 1.441 1.275 1.441 2.416V32.62L6.424.502H.1v.302c.748.38 1.43 1.275 1.43 2.404v35.664c0 1.096-.693 1.968-1.43 2.37v.336h4.882v-.302c-.749-.38-1.42-1.275-1.42-2.404V4.248l26.892 37.33V3.208c0-1.096.681-1.957 1.407-2.36V.502H26.98v.29Z"></path>
    <path fill="#124A85" d="M30.555 41.88 3.665 4.561v34.31c0 1.13.692 1.969 1.374 2.316l.055.022v.458H0v-.492l.056-.033c.637-.336 1.374-1.14 1.374-2.282V3.209c0-1.13-.693-1.98-1.374-2.315L0 .871V.4h6.48l.033.045 21.808 31.861V3.208c0-1.13-.693-1.98-1.386-2.326L26.88.86V.4h5.083v.503l-.056.023c-.626.346-1.363 1.14-1.363 2.27v38.672l.011.011ZM.201 41.477h4.692v-.145c-.715-.391-1.419-1.286-1.419-2.471V3.946l26.891 37.33V3.208c0-1.185.749-2.035 1.408-2.416v-.19H27.08v.135c.726.38 1.44 1.286 1.44 2.471v29.736l-.178-.268L6.368.602H.201v.135a2.847 2.847 0 0 1 1.43 2.471v35.664c0 1.196-.76 2.046-1.43 2.426v.18ZM332.899.502H300.87v4.372h.268c.447-1.409 1.821-2.337 3.117-2.337H314.6v36.324c0 1.096-.682 1.957-1.419 2.36v.346h7.452v-.29c-.76-.37-1.453-1.276-1.453-2.416V2.537h10.345c1.285 0 2.671.928 3.117 2.337h.269V.502h-.012Z"></path>
    <path fill="#124A85" d="M320.733 41.679h-7.642v-.504l.056-.033c.626-.347 1.363-1.14 1.363-2.27V2.638h-10.244c-1.307 0-2.603.973-3.017 2.27l-.022.067h-.436V.401h32.231v4.574h-.436l-.022-.067c-.413-1.286-1.709-2.27-3.016-2.27h-10.245v36.234c0 1.14.704 1.99 1.397 2.326l.055.022v.447l-.022.012Zm-7.452-.202h7.251v-.123c-.737-.38-1.452-1.286-1.452-2.482V2.436h10.445c1.363 0 2.726.996 3.184 2.338h.101V.602h-31.829v4.172h.101c.458-1.331 1.81-2.338 3.184-2.338h10.445v36.425c0 1.185-.748 2.035-1.418 2.415v.19l-.012.011ZM104.747 99.172h-10.1c-1.25 0-2.3-1.051-2.3-2.304V80.832h7.429c1.452 0 3.016.872 3.664 2.415h.414v-6.542h-.28c-.525 1.722-2.234 2.818-3.81 2.818h-7.429V62.278h10.256c2.167 0 4.547 1.51 5.497 3.814h.525v-5.86H86.269v.29c.77.37 1.464 1.287 1.464 2.439v35.563c0 1.118-.715 2.013-1.464 2.404v.324h24.489v-6.05h-.447c-.883 2.416-3.34 4.004-5.564 4.004v-.034Z"></path>
    <path fill="#124A85" d="M110.87 101.331H86.18v-.481l.056-.023c.703-.369 1.407-1.219 1.407-2.315V62.95c0-1.151-.704-2.001-1.407-2.348l-.056-.023v-.447h22.545v6.062h-.693l-.022-.067c-.894-2.17-3.162-3.747-5.396-3.747H92.458v17.043h7.329c1.631 0 3.229-1.185 3.709-2.75l.022-.068h.447v6.733h-.581l-.022-.056c-.681-1.622-2.29-2.349-3.575-2.349h-7.329v15.936c0 1.197 1.006 2.204 2.201 2.204h10.099c2.302 0 4.648-1.69 5.475-3.937l.022-.067h.615v6.263Zm-24.49-.202h24.288V95.28h-.279c-.871 2.282-3.284 4.004-5.642 4.004H94.648c-1.307 0-2.402-1.096-2.402-2.404V80.742h7.53c1.34 0 2.994.75 3.731 2.416h.257v-6.341h-.1c-.537 1.61-2.19 2.818-3.877 2.818h-7.53V62.189h10.357c2.301 0 4.625 1.6 5.552 3.813h.357v-5.67H86.381v.135c.737.38 1.463 1.286 1.463 2.494v35.563c0 1.14-.726 2.046-1.463 2.46v.168-.023ZM174.739 99.172H164.64c-1.251 0-2.302-1.051-2.302-2.304V80.832h7.43c1.452 0 3.016.872 3.664 2.415h.414v-6.542h-.28c-.525 1.722-2.234 2.818-3.809 2.818h-7.43V62.278h10.256c2.167 0 4.547 1.51 5.497 3.814h.525v-5.86h-22.344v.29c.771.37 1.463 1.287 1.463 2.439v35.563c0 1.118-.714 2.013-1.463 2.404v.324h24.489v-6.05h-.447c-.883 2.416-3.341 4.004-5.564 4.004v-.034Z"></path>
    <path fill="#124A85" d="M180.85 101.331h-24.69v-.481l.056-.023c.704-.369 1.408-1.219 1.408-2.315V62.95c0-1.151-.704-2.001-1.408-2.348l-.056-.023v-.447h22.545v6.062h-.692l-.023-.067c-.894-2.17-3.161-3.747-5.396-3.747h-10.155v17.043h7.329c1.631 0 3.228-1.185 3.709-2.75l.022-.068h.447v6.733h-.581l-.022-.056c-.682-1.622-2.29-2.349-3.575-2.349h-7.329v15.936c0 1.197 1.005 2.204 2.201 2.204h10.099c2.302 0 4.648-1.69 5.474-3.937l.023-.067h.614v6.263Zm-24.488-.202h24.287V95.28h-.279c-.872 2.282-3.285 4.004-5.642 4.004h-10.099c-1.307 0-2.402-1.096-2.402-2.404V80.742h7.53c1.34 0 2.994.75 3.731 2.416h.257v-6.341h-.101c-.525 1.61-2.189 2.818-3.876 2.818h-7.53V62.189h10.356c2.302 0 4.625 1.6 5.553 3.813h.357v-5.67h-22.142v.135c.737.38 1.463 1.286 1.463 2.494v35.563c0 1.14-.726 2.046-1.463 2.46v.168-.023ZM216.086 69.324c.76.38 1.452 1.286 1.452 2.427v20.465l-22.131-31.995h-6.368v.302c.76.38 1.43 1.286 1.43 2.426v35.563c0 1.108-.693 1.98-1.43 2.382v.336h4.916v-.302c-.76-.38-1.43-1.286-1.43-2.427V63.99l27.069 37.23v-29.48c0-1.096.682-1.968 1.419-2.37v-.347h-4.916v.29l-.011.012Z"></path>
    <path fill="#124A85" d="m219.684 101.532-.179-.246-26.891-36.983v34.21c0 1.129.693 1.99 1.374 2.337l.056.022v.459h-5.117v-.504l.056-.022c.637-.347 1.386-1.152 1.386-2.293V62.95c0-1.13-.693-1.99-1.386-2.337l-.056-.022v-.459h6.514l.033.045 21.953 31.738V71.762c0-1.14-.704-2.002-1.397-2.338l-.055-.022v-.458h5.116v.514l-.056.034c-.625.346-1.363 1.151-1.363 2.281v29.781l.012-.022Zm-30.544-.403h4.714v-.145c-.726-.392-1.43-1.297-1.43-2.483V63.687l.179.247 26.891 36.983V71.751c0-1.186.748-2.047 1.419-2.427v-.19h-4.715v.134a2.865 2.865 0 0 1 1.452 2.494V92.54l-22.288-32.219h-6.211v.146c.726.391 1.43 1.297 1.43 2.482v35.563c0 1.197-.76 2.058-1.43 2.438v.179h-.011ZM143.693 60.377v.224c.882.28 1.34.995 1.016 1.867l-10.591 30.934-10.01-30.777c-.368-.917 0-1.879 1.106-2.091v-.157h-8.446v.201c.849.224 1.911.929 2.804 3.087l13.574 37.621 13.306-37.777c.704-1.834 1.586-2.662 2.893-2.93v-.213h-5.641l-.011.011Z"></path>
    <path fill="#124A85" d="m133.135 101.577-.089-.258-13.574-37.62c-.704-1.723-1.631-2.74-2.737-3.031l-.078-.022v-.38h8.647v.335h-.078c-.47.112-.827.347-1.017.693-.201.358-.201.828-.022 1.286l9.92 30.497 10.502-30.653c.134-.37.134-.716 0-1.007-.157-.335-.492-.592-.939-.727l-.067-.022v-.403h5.843v.392h-.078c-1.307.28-2.145 1.14-2.827 2.874l-13.406 38.034v.012ZM116.858 60.5c1.139.325 2.078 1.376 2.793 3.132l13.473 37.363 13.216-37.509c.693-1.778 1.553-2.673 2.894-2.975v-.033h-5.441v.056c.458.156.816.447.983.805.168.347.179.75.023 1.163l-10.692 31.213-.089-.28-10.01-30.776c-.201-.504-.19-1.03.033-1.443.19-.358.525-.604.961-.738h-8.144v.022ZM261.109 60.232h-49.614v4.373h.268c.447-1.41 1.821-2.338 3.117-2.338h19.137v36.324c0 1.096-.681 1.957-1.419 2.359v.347h7.452v-.291c-.76-.369-1.452-1.275-1.452-2.415V62.267h19.137c1.285 0 2.67.928 3.117 2.337h.268v-4.372h-.011Z"></path>
    <path fill="#124A85" d="M240.151 101.409h-7.642v-.503l.056-.034c.625-.347 1.363-1.14 1.363-2.27V62.379h-19.037c-1.307 0-2.603.973-3.016 2.27l-.023.067h-.435v-4.574h49.815v4.574h-.436l-.022-.067c-.414-1.286-1.709-2.27-3.017-2.27h-19.036v36.223c0 1.14.703 1.99 1.396 2.326l.056.022v.448l-.022.011Zm-7.452-.201h7.25v-.123c-.737-.381-1.452-1.286-1.452-2.483V62.178h19.238c1.363 0 2.726.995 3.184 2.337h.101v-4.171h-49.414v4.171h.101c.458-1.33 1.81-2.337 3.184-2.337h19.238v36.424c0 1.185-.749 2.035-1.419 2.415v.191h-.011ZM254.517 100.123c-.435 0-.77.346-.77.794 0 .447.346.771.77.771.425 0 .794-.335.794-.771a.79.79 0 0 0-.794-.794Z"></path>
    <path fill="#124A85" d="M254.517 101.789a.873.873 0 0 1-.871-.872c0-.481.38-.895.871-.895a.89.89 0 0 1 .894.895c0 .503-.391.872-.894.872Zm0-1.577a.69.69 0 0 0-.681.705.67.67 0 0 0 .681.682.69.69 0 0 0 .704-.682.71.71 0 0 0-.704-.705ZM256.227 70.621c.905 0 2.636.269 4.1 2.08l.369.459v-2.181l-.101-.056a9.615 9.615 0 0 0-4.625-1.219c-4.704 0-8.122 3.076-8.122 7.325 0 4.25 3.418 7.325 8.122 7.325 1.564 0 3.296-.458 4.625-1.219l.101-.056v-2.303l-.38.548c-1.006 1.453-2.827 2.113-4.089 2.113-3.24 0-6.089-2.986-6.089-6.397 0-3.668 3.218-6.397 6.089-6.397v-.022Z"></path>
    <path fill="#124A85" d="M255.97 84.444c-4.759 0-8.223-3.12-8.223-7.415 0-4.294 3.452-7.414 8.223-7.414 1.597 0 3.307.447 4.67 1.23l.156.09v2.516l-.536-.671c-1.43-1.79-3.139-2.047-4.022-2.047-2.827 0-5.999 2.695-5.999 6.307 0 3.355 2.804 6.308 5.999 6.308 1.24 0 3.028-.649 4.011-2.07l.547-.793v2.662l-.156.089c-1.341.772-3.095 1.23-4.67 1.23v-.022Zm0-14.64c-4.648 0-8.033 3.043-8.033 7.225 0 4.183 3.374 7.225 8.033 7.225 1.553 0 3.262-.448 4.58-1.208l.056-.034v-1.934l-.201.29c-1.028 1.477-2.882 2.159-4.167 2.159-3.296 0-6.189-3.031-6.189-6.498 0-3.724 3.262-6.497 6.189-6.497.916 0 2.692.28 4.178 2.124l.201.247v-1.857l-.056-.033c-1.34-.772-3.005-1.208-4.58-1.208h-.011ZM254.529 87.15c-2.659 0-4.827 2.17-4.827 4.843 0 2.672 2.168 4.808 4.827 4.808s4.826-2.158 4.826-4.808-2.167-4.843-4.826-4.843Zm0 .615c1.955 0 2.848 2.18 2.848 4.216s-.893 4.216-2.848 4.216c-1.955 0-2.849-2.18-2.849-4.216 0-2.035.894-4.216 2.849-4.216Z"></path>
    <path fill="#124A85" d="M254.54 96.902a4.916 4.916 0 0 1-4.916-4.91c0-2.706 2.212-4.943 4.916-4.943 2.703 0 4.916 2.215 4.916 4.944a4.91 4.91 0 0 1-4.916 4.909Zm0-9.662c-2.603 0-4.726 2.136-4.726 4.753a4.72 4.72 0 0 0 4.726 4.719 4.728 4.728 0 0 0 4.726-4.72c0-2.605-2.123-4.752-4.726-4.752Zm0 9.047c-2.022 0-2.938-2.237-2.938-4.306s.916-4.305 2.938-4.305c2.022 0 2.938 2.236 2.938 4.305 0 2.07-.916 4.306-2.938 4.306Zm0-8.432c-1.888 0-2.748 2.136-2.748 4.115 0 1.98.86 4.116 2.748 4.116 1.888 0 2.748-2.136 2.748-4.116 0-1.98-.86-4.115-2.748-4.115ZM106.993 9.638c.76.38 1.452 1.287 1.452 2.427v20.466L86.303.535h-6.368v.302c.76.38 1.43 1.286 1.43 2.427v35.563c0 1.107-.693 1.98-1.43 2.382v.335h4.915v-.301c-.76-.38-1.43-1.287-1.43-2.427v-34.5l27.07 37.228V12.066c0-1.096.681-1.968 1.419-2.37v-.347h-4.916v.29Z"></path>
    <path fill="#124A85" d="m110.59 41.846-.178-.246L83.521 4.617v34.21c0 1.13.693 1.99 1.374 2.337l.056.023v.458h-5.117v-.503l.056-.023c.637-.346 1.385-1.151 1.385-2.292V3.264c0-1.13-.692-1.99-1.385-2.337l-.056-.023v-.47h6.513l.034.045 21.953 31.739V12.065c0-1.14-.704-2.002-1.397-2.337l-.056-.022v-.459h5.117v.514l-.056.034c-.625.347-1.363 1.152-1.363 2.281v29.782l.011-.012Zm-30.555-.402h4.715v-.146c-.726-.391-1.43-1.297-1.43-2.482V4.002l.179.246 26.89 36.983V12.065c0-1.185.749-2.046 1.419-2.427v-.19h-4.714v.135a2.865 2.865 0 0 1 1.452 2.493v20.779L86.258.635h-6.212v.146c.727.392 1.442 1.298 1.442 2.483v35.563c0 1.197-.76 2.058-1.442 2.438v.179h-.01Z"></path>
    <path fill="#124A85" d="M143.223.546h-40.822V4.92h.268c.447-1.409 1.822-2.337 3.117-2.337h19.138v36.323c0 1.096-.682 1.957-1.419 2.36v.347h7.452v-.291c-.76-.37-1.453-1.275-1.453-2.416V2.593h10.345c1.285 0 2.671.928 3.117 2.337h.269V.546h-.012Z"></path>
    <path fill="#124A85" d="M131.057 41.723h-7.641v-.503l.056-.033c.625-.347 1.362-1.141 1.362-2.27V2.693h-19.048c-1.307 0-2.603.973-3.016 2.27l-.022.067h-.436V.446h41.023V5.02h-.436l-.022-.067c-.413-1.286-1.709-2.27-3.016-2.27h-10.245v36.233c0 1.141.704 1.991 1.397 2.327l.055.022v.447l-.011.011Zm-7.451-.2h7.25v-.124c-.737-.38-1.452-1.286-1.452-2.483V2.492h10.445c1.363 0 2.726.996 3.184 2.338h.101V.647h-40.621v4.171h.101c.458-1.33 1.809-2.337 3.184-2.337h19.238v36.424c0 1.186-.749 2.036-1.419 2.416v.19l-.011.011Z"></path>
  </g>
</svg>
